<svg width="69" height="20" viewBox="0 0 69 20" fill="none" xmlns="http://www.w3.org/2000/svg">
<path d="M45.407 18.7218V20H41.1551L35.3785 13.1948L29.6809 20H25.4323V18.7486L32.7636 9.99842H35.0278L30.0238 4.02433H27.7596L25.4323 1.24822V0H29.6809L33.0701 4.02433H35.3343L37.6949 6.83204L40.0459 4.02433H37.7818L41.1551 0H45.377V1.24822L43.0496 4.02433H45.3137L40.3082 9.99842H38.0456L45.407 18.7218Z" fill="#00F61D"/>
<path d="M24.7654 4.02433V9.99842H22.5012V20H18.4769V9.99842H20.741V5.96935L17.3708 9.99842H15.1067L11.2514 14.6105L7.36925 9.99842H9.63343L6.26639 5.99937V9.99842H4.00221V20H0V9.99842H2.26418V4.02433H0V0H4.25186L7.62522 4.02433H9.8894L13.5156 8.35993L17.1307 4.02433H14.8665L18.2272 0H22.5012V4.02433H24.7654Z" fill="#00F61D"/>
<path d="M57.4069 6.78955V8.92974H59.5471V11.0699H61.6873V13.2101H63.8275V11.0699H65.9677V8.92974H68.1078V6.78955H65.9677V8.92974H63.8275V11.0699H61.6873V8.92974H59.5471V6.78955H57.4069Z" fill="#00F61D"/>
</svg>
