<svg width="114" height="21" viewBox="0 0 114 21" fill="none" xmlns="http://www.w3.org/2000/svg">
<path d="M113.312 18.8186V19.9714H109.477L104.267 13.8339L99.1287 19.9714H95.2969V18.8428L101.909 10.9512H103.951L99.4379 5.56323H97.3959L95.2969 3.0595V1.93375H99.1287L102.185 5.56323H104.227L106.356 8.09545L108.477 5.56323H106.435L109.477 1.93375H113.285V3.0595L111.186 5.56323H113.228L108.713 10.9512H106.673L113.312 18.8186Z" fill="#01AD15"/>
<path d="M95.3027 5.56323V10.9512H93.2621V19.9714H89.6797V10.9512H91.7203V5.56323H89.6797V1.93375H93.2621V5.56323H95.3027Z" fill="#01AD15"/>
<path d="M87.4453 5.56317C87.4453 4.9148 87.2772 4.3106 86.9437 3.76197C86.6103 3.20907 86.1714 2.7716 85.6285 2.4467C85.0855 2.11895 84.4785 1.95792 83.8116 1.95792H69.4062V5.5646H71.4483V10.9511H69.4062V19.9713H73.0129V13.9322L78.5106 13.9208L83.585 19.9713H87.3926V18.8427L83.2359 13.9094H83.8102C84.4771 13.9094 85.0827 13.7469 85.627 13.4206C86.17 13.0957 86.6088 12.6611 86.9423 12.1167C87.1646 11.7534 87.3114 11.3658 87.3869 10.9511H89.4859C89.4859 10.7461 89.4859 10.5393 89.4859 10.3269V5.5646H87.4439L87.4453 5.56317ZM85.8308 10.1488C85.8308 10.1816 85.8151 10.2115 85.7923 10.2386C85.7681 10.2628 85.7296 10.2742 85.6812 10.2742H75.2074C75.1561 10.2742 75.1205 10.2628 75.0934 10.2386C75.0692 10.2115 75.0578 10.1816 75.0578 10.1488V5.71707C75.0578 5.66577 75.0692 5.6273 75.0934 5.60307C75.1205 5.57885 75.1561 5.5646 75.2074 5.5646H85.6812C85.7296 5.5646 85.7681 5.58027 85.7923 5.60307C85.8165 5.6273 85.8308 5.66577 85.8308 5.71707V10.1488Z" fill="#01AD15"/>
<path d="M67.5313 1.92667V5.55615H62.3813V10.9441H60.3393V19.9643H56.7084V10.9441H58.7504V5.55615H49.4922V1.92667H67.5313Z" fill="#01AD15"/>
<path d="M23.0269 5.56323V10.9512H20.9848V19.9714H17.3554V10.9512H19.3974V7.3174L16.3579 10.9512H14.3158L10.8388 15.1107L7.33761 10.9512H9.37963L6.34296 7.34448V10.9512H4.30093V19.9714H0.691406V10.9512H2.73343V5.56323H0.691406V1.93375H4.52608L7.56846 5.56323H9.61048L12.8809 9.47343L16.1413 5.56323H14.0992L17.1302 1.93375H20.9848V5.56323H23.0269Z" fill="#01AD15"/>
<path d="M41.32 5.56027V5.53617C41.32 4.8684 41.1521 4.2616 40.8206 3.7186C40.4891 3.17701 40.0518 2.74176 39.5115 2.41425C38.9698 2.08958 38.366 1.92796 37.703 1.92796H26.9495C26.2851 1.92796 25.6813 2.08958 25.141 2.41425C24.5994 2.74176 24.1691 3.17701 23.8432 3.7186C23.5202 4.26302 23.3594 4.86982 23.3594 5.53617V5.56027H25.3921V10.952H23.3594V19.9804H26.9509V14.0385H37.6805V19.9804H41.3228V10.952H43.3556V5.56027H41.3228H41.32ZM39.5609 5.56027C39.6088 5.56027 39.6469 5.57587 39.6709 5.59997C39.6977 5.62407 39.7104 5.66377 39.7104 5.71481V10.4275H28.9809V5.71481C28.9809 5.66377 28.9922 5.62407 29.0204 5.59997C29.0444 5.57587 29.0796 5.56027 29.1304 5.56027H39.5609Z" fill="#00F61D"/>
<path d="M49.2658 5.56016V10.9519H47.2316V19.9802H43.6641V10.9519H45.6982V5.56016H43.6641V1.92643H47.2316V5.56016H49.2658Z" fill="#00F61D"/>
</svg>
